# xmcd
# 
# Track frame offsets:
#     150
#     5560
#     27660
#     38522
#     61882
#     75405
#     92525
#     101570
#     116942
#     119695
#     138647
#     165212
#     181307
#     183427
#     199260
#     213907
#     218237
# 
# Disc length: 3281
# 
# Revision: 5
# Processed by: cddbd v1.5.2PL0 Copyright (c) Steve Scherf et al.
# Submitted via: fre:ac v1.0.27
# 
DISCID=ea0ccf11
DTITLE=ICE BOX - The Very Best Of ICE BOX
DYEAR=1994
DGENRE=JPop
TTITLE0=名前
TTITLE1=冷たいキス（lemon tast mix）
TTITLE2=ICE BOX GIRL
TTITLE3=フワフワ
TTITLE4=Sun Flower Fields
TTITLE5=七夕
TTITLE6=Jam Session #1～みだらにダンス～
TTITLE7=ガンジス河へ
TTITLE8=Jam Session #2～ウッキーのヘルメット～
TTITLE9=RISE
TTITLE10=荒野のダンディー（The Cowboy Song）
TTITLE11=天国のクリス
TTITLE12=Jam Session #3～Inter play～
TTITLE13=方舟
TTITLE14=経験したいお年ごろ（baking powder mix）
TTITLE15=Jam Session #4～Welcome To This Place～
TTITLE16=落日
EXTD=1994.7.6
EXTT0=
EXTT1=
EXTT2=
EXTT3=
EXTT4=
EXTT5=
EXTT6=
EXTT7=
EXTT8=
EXTT9=
EXTT10=
EXTT11=
EXTT12=
EXTT13=
EXTT14=
EXTT15=
EXTT16=
PLAYORDER=
